<svg xmlns="http://www.w3.org/2000/svg" width="256" height="256"><path fill="#1976D2" fill-opacity=".016" fill-rule="evenodd" d="M0 128.004v128.004l128.25-.254 128.25-.254.254-127.75L257.008 0H0zm.485.496c0 70.4.119 99.053.265 63.672s.146-92.98 0-128S.485 58.1.485 128.5"/><path fill="#1976D2" fill-opacity=".147" fill-rule="evenodd" d="M75.281 17.095C61.98 18.826 51.667 30.58 51.614 44.069c-.059 14.954 10.737 26.467 25.962 27.689 7.031.565 12.065-.778 17.924-4.779 2.2-1.502 4.447-2.899 4.993-3.105s.872-.903.724-1.549.261-1.503.911-1.904q1.186-.735.372.579-.809 1.31.362.585c.644-.398.978-1.035.742-1.417-.531-.859 2.016-5.762 2.815-5.418 1.493.643 1.918.116.586-.726-1.29-.815-1.237-1.134.387-2.322 1.972-1.441 1.97-1.515-.328-12.115-3.2-14.767-16.861-24.435-31.783-22.492m31.798 32.488c.048 1.165.285 1.402.604.605.289-.722.253-1.585-.079-1.917s-.568.258-.525 1.312m9.16 9.752c-5.097 1.848-9.811 6.15-12.241 11.168-3.092 6.389-2.547 15.559 1.27 21.325 3.237 4.893 10.311 9.258 16.051 9.905 12.591 1.419 24.637-9.208 24.637-21.733 0-14.899-15.636-25.772-29.717-20.665M58.615 76.411c-8.744 3.254-14.94 12.776-16.524 25.391-1.718 13.684 1.209 21.396 12.058 31.772 7.898 7.553 17.794 13.37 28.851 16.958 11.205 3.637 29.875 4.566 40.983 2.04 12.655-2.878 17.197-6.572 8.082-6.572-2.714 0-8.14-.674-12.059-1.499-15.041-3.164-24.908-10.345-28.985-21.094-2.084-5.493-2.195-6.926-1.59-20.449.629-14.076.576-14.652-1.659-17.969-3.808-5.65-10.602-9.189-18.503-9.638-4.34-.247-8.163.133-10.654 1.06m92.803 18.503c-1.144.494-3.282 2.324-4.75 4.068-2.102 2.499-2.668 4.218-2.668 8.109 0 4.229.492 5.475 3.423 8.674 3.243 3.538 3.748 3.735 9.577 3.735s6.334-.197 9.577-3.735c2.948-3.218 3.423-4.433 3.423-8.765 0-4.299-.481-5.554-3.312-8.643-2.794-3.05-4.084-3.671-8.25-3.977-2.716-.199-5.875.041-7.02.534m-41.188 12.685c-8.537 6.728-8.208 16.671.824 24.831 7.284 6.581 12.926 8.549 24.539 8.56 14.877.015 24.958-3.975 32.598-12.9 6.772-7.911 8.84-14.466 3.514-11.136-11.144 6.965-21.433 8.808-28.925 5.181-2.414-1.168-6.534-4.609-9.156-7.646-8.195-9.491-16.856-12.042-23.394-6.89m-77.861 49.614c-.413.667-.946 4.942-1.185 9.5-.382 7.281-.662 8.287-2.309 8.287-1.667 0-1.875-.834-1.875-7.5 0-7.533-.937-9.163-3.687-6.413-.783.783-1.275.783-1.759 0-1.11-1.796-5.403-1.239-6.519.847-1.66 3.103-1.295 13.663.536 15.495 1.967 1.966 3.859 1.998 5.76.097 1.3-1.299 1.544-1.293 2.062.055.446 1.162 1.849 1.456 5.847 1.224l5.26-.305.147-9.814c.081-5.398.419-10.085.75-10.417 1.078-1.077.637-2.269-.838-2.269-.793 0-1.778.546-2.19 1.213M36 169.583c0 7.219.308 9.482 1.25 9.173.688-.226 1.415-2.176 1.616-4.333l.366-3.923 1.166 4c.676 2.321 1.782 4 2.634 4 1.164 0 1.528-1.915 1.756-9.25.241-7.781.043-9.25-1.25-9.25-1.092 0-1.568 1.087-1.641 3.75l-.104 3.75-.996-3.75c-.708-2.669-1.544-3.75-2.896-3.75-1.736 0-1.901.834-1.901 9.583m10.212-.333c.165 5.308.714 9.25 1.288 9.25s1.123-3.942 1.288-9.25c.244-7.873.053-9.25-1.288-9.25s-1.532 1.377-1.288 9.25m4.865-7.842c-.722.869-1.055 4.171-.873 8.645.33 8.059 2.026 10.533 5.664 8.261 1.432-.894 2.152-.894 3.045-.001 1.147 1.147 2.075.4 3.497-2.813.243-.55 1.348.122 2.454 1.493 2.935 3.638 3.506 1.066 1.903-8.574-1.135-6.819-1.614-7.962-3.45-8.226-1.682-.243-2.258.338-2.725 2.75l-1.148 5.949c-.434 2.261-.979 2.781-2.5 2.383-1.473-.385-1.944.004-1.944 1.608 0 1.165-.45 2.117-1 2.117s-1-2.448-1-5.441.45-5.719 1-6.059 1 .309 1 1.441.648 2.059 1.441 2.059c2.145 0 2.692-1.519 1.591-4.416-1.105-2.906-4.976-3.561-6.955-1.176m21.135 7.842c.301 9.672 1.995 12.684 2.672 4.75l.384-4.5 1.164 4.5c1.023 3.958 1.499 4.506 3.951 4.548 1.675.028 3.335-.735 4.16-1.913 1.347-1.922 1.411-1.913 3.341.452 1.693 2.076 2.057 2.184 2.606.774.568-1.458-.743-11.473-2.109-16.111-.284-.963-1.365-1.75-2.403-1.75-1.946 0-2.08.395-3.916 11.5-.79 4.779-.832 4.636-.944-3.25-.095-6.614-.415-8.25-1.618-8.25-1.048 0-1.531 1.129-1.603 3.75l-.104 3.75-.996-3.75c-.717-2.701-1.538-3.75-2.934-3.75-1.798 0-1.917.666-1.651 9.25m17.326-8.311c-.319.516.083 1.309.892 1.762 1.045.585 1.559 2.998 1.771 8.312.234 5.856.626 7.487 1.799 7.487 1.179 0 1.562-1.658 1.792-7.75.222-5.88.634-7.75 1.708-7.75 1.069 0 1.487 1.837 1.708 7.507.161 4.139.741 7.51 1.292 7.513.55.003 1.225-3.488 1.5-7.758l.5-7.762.831 6.759c.938 7.634 3.159 11.159 5.239 8.315.663-.907 1.587-4.669 2.055-8.361l.85-6.713.512 7.762c.282 4.27.963 7.76 1.513 7.756.571-.004 1.124-3.896 1.288-9.079l.289-9.071-3.289.316c-3.158.304-3.308.513-3.788 5.316-.414 4.141-.626 4.571-1.236 2.5-.405-1.375-.743-3.738-.75-5.25L106 160h-7.941c-4.368 0-8.202.422-8.521.939m26.674 8.311.288 9.25 2.899.049c1.594.026 3.388-.476 3.987-1.117.822-.88 1.394-.769 2.335.451 1.116 1.448 1.312 1.382 1.879-.633.687-2.443 3.4-3.126 3.4-.857 0 1.821 1.557 2.308 6.821 2.136 5.364-.175 6.144-1.34 6.164-9.208.017-7.062-1.45-9.321-6.056-9.321H135l-.118 8.25c-.112 7.886-.154 8.029-.944 3.25-1.937-11.717-1.91-11.644-4.245-11.312-1.887.268-2.351 1.288-3.324 7.312l-1.132 7-.118-6.05c-.136-6.937-1.185-8.45-5.857-8.45h-3.337zm32.502-8.631c-1.666 1.667-.618 6.871 1.916 9.517 1.883 1.965 2.407 3.258 1.845 4.554-.736 1.698-.81 1.702-1.203.06-.433-1.809-2.76-2.387-3.671-.913-.822 1.33 2.337 5.163 4.256 5.163 4.611 0 5.549-6.176 1.643-10.818-2.606-3.097-3.21-5.182-1.5-5.182.55 0 1 .675 1 1.5s.705 1.5 1.566 1.5c1.119 0 1.476-.786 1.25-2.75-.258-2.245-.873-2.805-3.352-3.047-1.67-.164-3.357.024-3.75.416m12.498 8.631c.172 5.51.692 9.157 1.288 9.021.55-.126 1.14-1.814 1.31-3.75.398-4.507 2.19-4.612 2.19-.128 0 3.401 2.275 5.589 3.593 3.457.441-.715.919-.639 1.456.229.633 1.025 1.104 1.039 2.278.065 1.106-.918 1.576-.934 1.867-.063.598 1.795 10.806.154 10.806-1.738 0-.808-.787-1.389-1.75-1.291-6.154.626-6.25.509-6.25-7.625 0-6.676-.207-7.533-1.75-7.233-1.48.288-1.75 1.493-1.75 7.825 0 7.003-.139 7.484-2.16 7.483-1.675-.002-2.282-.755-2.704-3.357-.299-1.845-.298-4.583.002-6.086.697-3.483-1.747-6.059-5.747-6.059h-2.966zM18 169.5c0 4.157.372 6.388 1 6 .55-.34 1-1.491 1-2.559S20.675 171 21.5 171c.833 0 1.5-.889 1.5-2s-.667-2-1.5-2c-.825 0-1.5-.648-1.5-1.441s-.45-1.719-1-2.059c-.628-.388-1 1.843-1 6m101.908-6.45c-.631 3.094-.183 11.877.592 11.622 1.389-.456 1.86-9.712.56-11.012-.583-.583-1.101-.857-1.152-.61m18.984 0c-.059.247-.295 3.079-.524 6.291-.315 4.424-.107 5.74.858 5.422 1.6-.527 2.286-9.651.834-11.103-.583-.583-1.108-.857-1.168-.61M164 165.5c0 1.375.45 2.5 1 2.5s1-1.125 1-2.5-.45-2.5-1-2.5-1 1.125-1 2.5m-101.303 3.893c-.409 1.041-.508 2.129-.221 2.417.913.912 1.715-.583 1.333-2.482-.35-1.74-.404-1.737-1.112.065M129 170c0 1.1.408 2 .906 2s.671-.9.384-2-.696-2-.907-2c-.21 0-.383.9-.383 2m-44 .5c0 .825.45 1.5 1 1.5s1-.675 1-1.5-.45-1.5-1-1.5-1 .675-1 1.5m146.5 4.636c-6.821 1.595-19.691 8.463-26.614 14.201l-6.614 5.482-3.615-4.325c-4.448-5.321-8.836-6.914-17.197-6.243-8.792.706-9.277 1.344-4.052 5.335 5.509 4.206 13.221 15.744 17.088 25.565 1.591 4.042 2.975 7.481 3.075 7.642.099.161 3.049-2.703 6.555-6.365 14.362-15 35.708-30.774 48.834-36.088 3.858-1.562 7.021-3.14 7.028-3.507.02-1.1-9.714-2.84-15.287-2.733-2.861.056-7.001.522-9.201 1.036m-74.323 1.417c.452 2.172 2.227 2.305 2.633.197.21-1.095-.28-1.75-1.31-1.75-.961 0-1.512.647-1.323 1.553m-24.438 6.406c-4.301.834-6.077 2.041-3.003 2.041 1.401 0 2.407.971 3.117 3.009.936 2.685.782 3.184-1.433 4.635-1.365.895-2.254 1.855-1.975 2.134s1.218-.083 2.088-.805c1.42-1.179 1.511-.763.888 4.107-.812 6.358.293 6.209 1.384-.187.651-3.809 1.138-4.466 3.722-5.02 2.924-.626 2.929-.638.317-.755-2.575-.114-2.623-.228-1.563-3.683 1.361-4.433 3.847-5.83 8.926-5.018 2.579.412 3.722.276 3.308-.393-.708-1.145-10.008-1.183-15.776-.065M6.524 186.406c-5.95 6.308-7.02 14.214-2.262 16.711 2.171 1.139 2.186 1.115.488-.8-.963-1.086-1.743-3.289-1.734-4.896.023-3.937 3.881-10.51 7.274-12.391 2.451-1.358 2.878-1.362 3.811-.03.934 1.333 1.006 1.333.647 0-.803-2.976-4.723-2.306-8.224 1.406m77.857-1.614c-1.464.941-4.381 6.706-4.381 8.658 0 .853-.536 1.438-1.191 1.3-.654-.137-1.362.537-1.573 1.5s.127 1.75.75 1.75c.622 0 .826-.495.452-1.1-.494-.799-.119-.799 1.376 0 2.466 1.32 4.288 1.45 2.25.161-1.247-.79-1.247-1.14 0-2.677 1.111-1.368 1.129-1.583.079-.951-1.055.635-1.199.288-.646-1.558.925-3.089 3.524-7.187 4.157-6.555.271.272-.226 1.886-1.106 3.587S83.174 192 83.449 192s1.224-1.402 2.11-3.115c1.602-3.098.926-5.446-1.178-4.093m49.012.79c.334.87.639 2.332.677 3.25.056 1.333.243 1.266.93-.332 1.334-3.104 1.145-4.5-.607-4.5-1.055 0-1.398.544-1 1.582m-113.778 2.463c-2.693 3.201-5.129 10.315-4.101 11.978.944 1.527 3.985 1.151 6.601-.815 1.683-1.265 3.936-1.742 7.651-1.622 2.897.094 5.524-.247 5.839-.756.335-.542 1.151-.448 1.963.227.965.801 2.237.858 4.161.188q2.77-.964 4.436.086c1.18.745 2.344.712 4-.113 2.217-1.106 2.188-1.133-.57-.544-2.601.556-2.847.396-2.344-1.527.662-2.53.16-2.701-1.894-.647-1.579 1.579-4.2 1.766-8.357.598-1.468-.412-3.532-.167-5 .594-3.751 1.944-5.327 1.668-4.676-.822.527-2.017.414-1.997-2.134.378-2.534 2.363-6.368 4.752-7.624 4.752-.311 0-.549-1.012-.527-2.25.023-1.398 1.218-3.007 3.155-4.25 1.714-1.1 3.828-3.125 4.698-4.5.932-1.474.042-.898-2.169 1.404-2.062 2.147-4 3.652-4.308 3.345-.995-.996 4.025-7.655 6.085-8.072 1.851-.374 1.839-.415-.161-.541-1.295-.081-3.189 1.085-4.724 2.909m86.06-.07c-2.939 3.492-5.111 9.447-4.257 11.672.661 1.723 4.892 1.17 7.48-.977.775-.644 3.589-1.192 6.254-1.218s5.408-.618 6.096-1.313c1.009-1.019.675-1.047-1.718-.143-2.516.95-3.171.848-4.277-.665-1.08-1.477-1.606-1.571-3.03-.544-4.015 2.894-7.774 5.206-8.473 5.209-.412.002-.75-1.121-.75-2.496s.415-2.5.923-2.5c1.239 0 7.077-4.959 7.077-6.012 0-.459-1.37.536-3.045 2.211-3.867 3.867-4.852 2.989-1.937-1.728 1.617-2.616 2.77-3.498 4.114-3.147 1.028.269 1.868.081 1.868-.418 0-2.019-3.981-.717-6.325 2.069M165 193.839c0 .462-1.108 1.345-2.461 1.961-1.916.873-3.079.799-5.25-.333-3.5-1.825-4.379-1.822-7.925.027-3.647 1.902-5.364 1.904-5.364.006 0-.825-.675-1.5-1.5-1.5s-1.5.45-1.5 1l-.001 1.736c-.003 1.5 10.466.883 11.825-.697.778-.904 1.036-.979.625-.182-.52 1.009-.175 1.191 1.342.709 1.122-.356 2.295-.237 2.605.265.86 1.393 13.49.698 14.894-.819.977-1.054.824-1.16-.79-.546-5.204 1.979-5.84 1.942-5.252-.308.311-1.187.157-2.158-.342-2.158-.498 0-.906.378-.906.839m-111.541 1.228c-1.066 1.724.429 2.433 5.128 2.433 3.238 0 4.418-.398 4.442-1.5.025-1.179.25-1.126 1.051.25.561.963 1.643 1.75 2.405 1.75 2.024 0 6.877-1.971 6.292-2.556-.275-.275-1.786-.011-3.359.587-2.318.881-3.075.791-4.003-.478-1.027-1.405-1.511-1.411-4.747-.059-4.557 1.904-6.035 1.906-5.306.006.654-1.705-.899-2.059-1.903-.433m33.217.887-2.824 1.808 4.324-.027c2.378-.015 3.561-.215 2.629-.444-.989-.243-1.465-1.015-1.143-1.854.677-1.763.537-1.738-2.986.517m-75.766 3.113c-3.506 3.84-3.866 5.184-.72 2.683 1.5-1.192 5.439-6.824 4.675-6.683-.201.037-1.981 1.837-3.955 4M94 196c-.825.533-1.05.969-.5.969s1.675-.436 2.5-.969 1.05-.969.5-.969-1.675.436-2.5.969M9.156 211.859C6.32 217.831 4 223.006 4 223.359s.592.641 1.315.641 2.066-1.575 2.984-3.5c1.545-3.24 2.006-3.5 6.201-3.5s4.656.26 6.201 3.5c1.498 3.14 4.299 4.853 4.299 2.629 0-.94-9.978-22.129-10.421-22.129-.146 0-2.587 4.886-5.423 10.859M30.4 204.4c-2.889 2.889-3.4 4.097-3.4 8.035 0 7.569 4.857 12.57 12.2 12.561 3.558-.004 9.8-3.251 9.8-5.098 0-1.174-1.358-.933-6.574 1.169C36.055 223.634 30 219.681 30 212.955c0-5.462 3.406-8.955 8.732-8.955 2.103 0 4.861.727 6.13 1.616 3.527 2.47 4.973.186 1.574-2.487-1.935-1.523-4.12-2.129-7.671-2.129-4.313 0-5.411.446-8.365 3.4m22.267-2.733c-.367.366-.667 5.541-.667 11.5 0 8.789.273 10.833 1.448 10.833 1.041 0 1.532-1.473 1.75-5.25l.302-5.25 3.963 5.25c2.251 2.981 4.756 5.25 5.796 5.25 1.529 0 1.24-.776-1.74-4.679l-3.573-4.679 2.877-1.21c4.783-2.011 5.505-6.195 1.722-9.977-1.858-1.859-3.517-2.455-6.833-2.455-2.408 0-4.679.3-5.045.667m18.042-.043c-.39.39-.709 5.584-.709 11.543V224h7.083c5.22 0 6.975-.329 6.672-1.25-.24-.729-2.569-1.376-5.584-1.552L73 220.895V213h5.583c7.344 0 6.995-2.369-.412-2.802-4.99-.292-5.171-.406-5.171-3.25 0-2.912.068-2.948 5.583-2.948 4.02 0 5.468-.35 5.171-1.25-.449-1.361-11.828-2.343-13.045-1.126M86 212.5V224h6.277c7.214 0 10.235-1.588 12.265-6.446 1.468-3.513.652-9.409-1.693-12.237-2.061-2.485-7.287-4.317-12.317-4.317H86zm22 0c0 9.556.254 11.5 1.5 11.5s1.5-1.944 1.5-11.5-.254-11.5-1.5-11.5-1.5 1.944-1.5 11.5m4.667-10.833c-1.36 1.359-.595 2.333 1.833 2.333h2.5v10c0 8.222.267 10 1.5 10s1.5-1.778 1.5-10v-10h2.5c1.556 0 2.5-.567 2.5-1.5 0-1.162-1.315-1.5-5.833-1.5-3.209 0-6.134.3-6.5.667M132 209.5c-2.316 4.95-4.85 10.238-5.631 11.75-1.299 2.514-1.264 2.75.404 2.75 1.178 0 2.274-1.241 3.091-3.5 1.213-3.354 1.47-3.5 6.187-3.5 4.68 0 4.994.172 6.385 3.5.804 1.925 2.16 3.5 3.013 3.5s1.551-.167 1.551-.37c0-.204-2.428-5.491-5.395-11.75l-5.395-11.38zm17.667-7.833c-.367.366-.667 5.541-.667 11.5V224h6.484c5.725 0 6.86-.336 9.693-2.866 2.815-2.516 3.208-3.49 3.208-7.959 0-5.768-1.855-8.592-7.103-10.813-3.358-1.421-10.464-1.847-11.615-.695m25.746 9.985c-2.702 5.859-5.063 11.034-5.246 11.5-.184.467.402.848 1.301.848.922 0 2.271-1.524 3.096-3.5 1.384-3.311 1.722-3.5 6.264-3.5 4.503 0 4.905.218 6.471 3.5 1.553 3.257 3.701 4.732 3.701 2.541 0-1.188-9.717-22.041-10.271-22.041-.221 0-2.613 4.794-5.316 10.652M55 207.56c0 3.487.076 3.554 3.649 3.25 4.678-.398 6.758-3.254 3.91-5.369-1.068-.792-3.205-1.441-4.75-1.441-2.553 0-2.809.325-2.809 3.56m34 4.804V221h4.066c7.531 0 11.03-4.148 8.913-10.564-1.428-4.327-2.777-5.309-8.33-6.071L89 203.728zm63 0V221h4.927c4.185 0 5.254-.415 7.091-2.75 1.632-2.074 2.026-3.594 1.604-6.19-.766-4.724-3.303-6.918-8.887-7.683l-4.735-.649zm-138.839-1.817c-1.573 3.451-1.572 3.453 1.865 3.453h3.025l-1.551-3c-.853-1.65-1.693-3-1.865-3-.173 0-.836 1.146-1.474 2.547m121.432.273-1.644 3.18h3.025c3.373 0 3.548-.429 1.609-3.93l-1.346-2.429zm44.568-.273c-1.573 3.451-1.572 3.453 1.865 3.453h3.025l-1.551-3c-.853-1.65-1.693-3-1.865-3-.173 0-.836 1.146-1.474 2.547M.411 227.372c-.292.76-.391 3.575-.221 6.255L.5 238.5h190v-12l-94.779-.255c-79.905-.215-94.863-.038-95.31 1.127"/><path fill="#1976D2" fill-opacity=".486" fill-rule="evenodd" d="M73.081 18.588c-9.808 2.638-14.419 6.539-18.651 15.783-5.903 12.896-.354 27.577 12.98 34.338 12.902 6.543 29.935.902 36.406-12.056 5.002-10.014 3.491-20.615-4.179-29.328-4.355-4.948-7.876-7.034-15.137-8.969-5.855-1.56-4.661-1.584-11.419.232m41.378 42.292c-4.562 2.072-8.828 6.675-10.996 11.863-5.478 13.11 5.093 28.245 19.822 28.382 8.786.081 15.018-3.373 19.316-10.707 4.598-7.846 3.064-19.892-3.263-25.613-6.071-5.491-17.473-7.29-24.879-3.925M57.5 77.332c-1.65.757-4.889 3.43-7.197 5.942C41.98 92.33 39.396 111.119 44.977 122c3.118 6.079 13.328 15.904 21.689 20.871 20.024 11.896 46.356 14.506 66.209 6.562 2.262-.905 3.863-2.047 3.559-2.539s-3.356-.894-6.783-.894c-6.732 0-15.486-1.949-22.306-4.965-6.186-2.737-13.74-10.231-16.45-16.321-2.399-5.389-2.829-12.559-1.794-29.884.46-7.69-.883-10.274-7.93-15.258C77.55 77.01 75.995 76.6 68.766 76.3c-5.554-.23-9.25.108-11.266 1.032m95 18.041c-7.346 3.36-10.302 11.068-6.731 17.55 2.048 3.717 7.301 7.077 11.064 7.077 6.363 0 13.171-6.527 13.163-12.618-.011-8.454-10.112-15.387-17.496-12.009m-42.905 13.126c-1.483 1.375-3.386 4.15-4.229 6.167-3.205 7.672 2.467 17.097 13.85 23.012 4.864 2.527 6.198 2.746 16.784 2.75 12.715.006 17.683-1.361 26.176-7.205 4.998-3.439 12.199-13.108 11.668-15.666-.296-1.422-.821-1.301-3.747.864-1.871 1.385-6.288 3.478-9.816 4.652-10.492 3.492-19.729.931-26.346-7.304-5.44-6.768-10.489-9.769-16.439-9.769-4.164 0-5.743.499-7.901 2.499M32.5 158c-.34.55-.168 1 .382 1s1.278-.45 1.618-1 .168-1-.382-1-1.278.45-1.618 1m-16.423 3.408c-.724.872-1.056 4.197-.873 8.75.288 7.135.371 7.351 2.979 7.652 2.779.321 5.559-2.8 4.304-4.831-1.051-1.7-2.487-1.062-2.487 1.104 0 1.223-.517 1.911-1.25 1.667-1.609-.536-1.726-11.925-.127-12.458.617-.205 1.374.59 1.682 1.768.588 2.246 2.695 1.818 2.695-.548 0-1.738-2.735-4.512-4.449-4.512-.718 0-1.832.633-2.474 1.408M24 168.917V178h3.5c3.861 0 4.82-1.673 1.25-2.18-2.09-.297-2.259-.849-2.373-7.778-.076-4.538-.565-7.605-1.25-7.833-.781-.26-1.127 2.416-1.127 8.708m12 .01c0 5.382.407 9.073 1 9.073.55 0 1-2.55 1-5.667 0-6.539.663-6.466 2.38.265 2.009 7.875 3.62 6.756 3.62-2.515V161.5c0-.275-.337-.613-.75-.75s-.923 1.775-1.134 4.25l-.384 4.5-1.163-4.495c-.731-2.827-1.795-4.617-2.866-4.824-1.503-.289-1.703.737-1.703 8.746m10.639-8.233c-.351.352-.639 4.389-.639 8.973 0 6.74.287 8.333 1.5 8.333 1.215 0 1.5-1.605 1.5-8.441 0-7.766-.727-10.498-2.361-8.865m4.932.877c-1.093 1.094-1.566 3.451-1.556 7.75.019 7.483.806 8.941 4.594 8.509 2.31-.264 2.955-.882 3.207-3.08.363-3.155-1.32-3.755-2.106-.75-.287 1.1-1.015 2-1.616 2-.68 0-1.094-2.462-1.094-6.5 0-6.123 1.278-8.545 2.638-5 .799 2.08 2.362 1.882 2.362-.3 0-3.839-3.704-5.353-6.429-2.629m9.943-.321c-.67 1.983-2.514 12.932-2.514 14.934 0 .999.45 1.816 1 1.816s1-.675 1-1.5c0-.833.889-1.5 2-1.5s2 .667 2 1.5c0 .825.705 1.5 1.567 1.5 1.011 0 1.396-.622 1.084-1.75-.265-.963-.778-4-1.139-6.75-.36-2.75-.897-6.012-1.192-7.25-.574-2.406-3.105-3.071-3.806-1m11.174-.604c-1.061 1.06-.815 17.354.262 17.354.523 0 1.093-2.588 1.268-5.75.331-5.989.938-5.66 2.771 1.5.673 2.628 1.661 4.25 2.588 4.25 1.242 0 1.451-1.509 1.212-8.75-.297-8.989-1.99-12.018-2.655-4.75l-.366 4-1.144-3.92c-1.122-3.846-2.573-5.297-3.936-3.934m11.894.221c-.567.918-2.563 12.846-2.574 15.383-.005.963.442 1.75.992 1.75s1-.675 1-1.5c0-.833.889-1.5 2-1.5s2 .667 2 1.5c0 .825.705 1.5 1.567 1.5 1.009 0 1.397-.623 1.088-1.75-.264-.963-.76-3.55-1.102-5.75-1.213-7.806-1.691-9.339-3.082-9.873-.774-.297-1.624-.189-1.889.24m15.057-.173c-.351.352-.639 4.389-.639 8.973 0 6.74.287 8.333 1.5 8.333 1.215 0 1.5-1.605 1.5-8.441 0-7.766-.727-10.498-2.361-8.865m3.361 1.363c0 1.132.516 5.182 1.147 9 .896 5.431 1.518 6.943 2.853 6.943s1.957-1.512 2.853-6.943c1.453-8.797 1.488-11.798.12-10.43-.564.564-1.301 3.343-1.636 6.174-.654 5.526-2.328 6.16-2.351.89-.017-4.145-.987-7.691-2.103-7.691-.485 0-.883.926-.883 2.057m9.639-1.363c-.351.352-.639 4.389-.639 8.973 0 6.74.287 8.333 1.5 8.333 1.215 0 1.5-1.605 1.5-8.441 0-7.766-.727-10.498-2.361-8.865m3.823.544c-.306.797-.422 4.782-.259 8.856l.297 7.406 3.251.313c2.728.263 3.411-.109 4.25-2.315 1.389-3.655 1.249-10.788-.251-12.752-1.797-2.352-6.584-3.343-7.288-1.508m12.742-.364c-.661.408-1.664 3.416-2.229 6.684s-1.25 6.954-1.521 8.192c-.342 1.562-.028 2.25 1.027 2.25.835 0 1.519-.675 1.519-1.5 0-2.06 2.681-1.892 3.875.242 1.902 3.397 2.365.227 1.128-7.722-1.3-8.36-1.782-9.393-3.799-8.146m6.17.593c-.257.671-.334 4.553-.171 8.627.296 7.38.307 7.407 3.248 7.742 1.963.223 3.385-.259 4.25-1.441 1.657-2.267 1.69-11.519.049-13.588-1.614-2.034-6.751-2.967-7.376-1.34m13.864-.305c-1.973 1.973-1.443 5.513 1.262 8.433 2.477 2.672 3.38 6.405 1.55 6.405-.523 0-1.389-.784-1.925-1.742-1.268-2.265-2.501-1.019-1.649 1.667.462 1.455 1.503 2.075 3.484 2.075 4.656 0 5.551-5.232 1.54-9-1.375-1.292-2.5-3.17-2.5-4.174 0-2.1 1.078-2.348 2.783-.643 1.645 1.645 2.881.095 1.58-1.981-1.338-2.134-4.495-2.67-6.125-1.04m12.296-.362c-.294.293-.534 4.283-.534 8.867 0 6.74.287 8.333 1.5 8.333 1.091 0 1.5-1.125 1.5-4.122 0-3.551.208-3.95 1.5-2.878.825.685 1.5 2.54 1.5 4.122 0 1.583.442 2.878.982 2.878.581 0 .887-3.348.75-8.21l-.232-8.211-3.216-.656c-1.77-.361-3.457-.417-3.75-.123m14.105-.106c-.351.352-.639 4.389-.639 8.973V178h3.5c1.925 0 3.5-.45 3.5-1s-.9-1-2-1c-1.821 0-2-.667-2-7.441 0-6.876-.773-9.453-2.361-7.865M32 169.5c0 5 .412 8.5 1 8.5s1-3.5 1-8.5-.412-8.5-1-8.5-1 3.5-1 8.5m58-7.5c0 .55.675 1 1.5 1 1.2 0 1.5 1.5 1.5 7.5 0 4.333.422 7.5 1 7.5s1-3.167 1-7.5c0-6 .3-7.5 1.5-7.5.825 0 1.5-.45 1.5-1s-1.8-1-4-1-4 .45-4 1m29 7.583c0 4.82.335 6.473 1.25 6.171.774-.256 1.363-2.763 1.548-6.583.242-5.032.012-6.171-1.25-6.171-1.241 0-1.548 1.308-1.548 6.583m19 0c0 4.82.335 6.473 1.25 6.171.774-.256 1.363-2.763 1.548-6.583.242-5.032.012-6.171-1.25-6.171-1.241 0-1.548 1.308-1.548 6.583m26-4.083c0 1.689.458 2.514 1.25 2.25.688-.229 1.25-1.242 1.25-2.25s-.562-2.021-1.25-2.25c-.792-.264-1.25.561-1.25 2.25m-34.93 2.75c-.038 2.063.38 3.75.93 3.75 1.194 0 1.194-2.721 0-5.5-.689-1.604-.873-1.258-.93 1.75m-66.403-1.583C61.62 167.714 61.888 172 63 172c.55 0 1-1.35 1-3 0-3.107-.204-3.463-1.333-2.333M85 169c0 1.65.45 3 1 3s1-1.35 1-3-.45-3-1-3-1 1.35-1 3m148.634 6.154c-9.482 1.814-25.242 10.521-32.025 17.693l-2.89 3.056-4.392-4.885c-5.225-5.81-9.504-7.486-17.113-6.701-6.823.705-8.141 1.846-4.719 4.088 2.505 1.641 2.67 1.619 4.611-.602l2.013-2.303-1.648 2.71c-1.606 2.64-1.568 2.793 1.482 6 3.166 3.328 14.047 23.756 14.047 26.372 0 .78.289 1.418.642 1.418s5.244-4.546 10.867-10.103 14.648-13.419 20.056-17.471C234.867 186.707 250.608 178 254.26 178c3.931 0 .404-1.808-5.694-2.919-6.744-1.229-8.162-1.222-14.932.073m-75.995.54c-1.126 1.126-.685 2.306.861 2.306.825 0 1.5-.423 1.5-.941 0-1.261-1.562-2.164-2.361-1.365m13.944.172c-.431.697-.513 1.537-.183 1.867.895.895 1.871-.421 1.387-1.871-.338-1.016-.574-1.016-1.204.004M183.5 177c.34.55.816 1 1.059 1s.441-.45.441-1-.477-1-1.059-1-.781.45-.441 1m7.959 18.067c-.363.586-.445 1.281-.183 1.543s.743-.218 1.069-1.067c.676-1.762.1-2.072-.886-.476m-8.916.864c-.317.512-.118 1.213.441 1.559s1.016-.074 1.016-.931c0-1.757-.6-2.015-1.457-.628m-149.345 6.688c-7.025 3.576-8.197 13.311-2.244 18.631 3.871 3.459 11.436 3.876 15.185.836 2.951-2.392 1.816-3.868-1.297-1.688-5.863 4.107-14.373.472-15.502-6.621-.526-3.304-.196-4.121 2.933-7.25 4.153-4.153 8.081-4.61 12.145-1.413 3.275 2.577 4.771 1.63 1.923-1.217-2.79-2.791-8.987-3.393-13.143-1.278m-19.497.631c-.283.688-2.566 5.637-5.075 11-2.508 5.363-4.118 9.75-3.577 9.75s1.734-1.575 2.652-3.5c1.588-3.328 1.921-3.5 6.799-3.5s5.211.172 6.799 3.5c.918 1.925 2.126 3.5 2.685 3.5 1.381 0 1.454.231-2.467-7.827-1.916-3.936-4.143-8.735-4.949-10.665-1.587-3.797-2.077-4.183-2.867-2.258M53 213.059c0 7.118.356 10.839 1 10.441.55-.34 1-2.616 1-5.059s.354-4.441.787-4.441c.432 0 2.466 2.25 4.519 5s4.174 5 4.713 5c1.658 0 1.047-1.335-2.513-5.496l-3.418-3.995 3.206-1.508c2.558-1.202 3.272-2.205 3.535-4.96.423-4.45-1.688-6.041-8.02-6.041H53zM71 213v11h6c3.333 0 6-.444 6-1 0-.55-2.25-1-5-1h-5v-9h5c2.75 0 5-.45 5-1s-2.25-1-5-1h-5v-7h5c2.75 0 5-.45 5-1 0-.556-2.667-1-6-1h-6zm16 0v11h4.953c2.724 0 6.025-.488 7.335-1.085 5.233-2.384 7.282-10.449 4.047-15.925-2.148-3.637-5.235-4.99-11.382-4.99H87zm21.216-.25c.167 6.311.697 10.75 1.284 10.75s1.117-4.439 1.284-10.75c.243-9.216.06-10.75-1.284-10.75s-1.527 1.534-1.284 10.75M113 203c0 .55 1.125 1 2.5 1h2.5v10c0 6 .4 10 1 10s1-4 1-10v-10h2.5c1.375 0 2.5-.45 2.5-1 0-.556-2.667-1-6-1s-6 .444-6 1m18.12 9.354c-5.652 11.981-5.534 11.646-4.104 11.646.559 0 1.767-1.575 2.685-3.5 1.598-3.349 1.897-3.5 6.965-3.5 4.791 0 5.355.234 5.913 2.459.638 2.543 3.421 5.613 3.421 3.774 0-.556-2.196-5.674-4.88-11.372l-4.88-10.361zM150 213v11h4.935c2.714 0 6.068-.431 7.452-.957 2.993-1.138 5.613-5.772 5.613-9.928 0-7.483-4.232-11.115-12.95-11.115H150zm25.235.068c-2.829 6.088-4.602 10.902-3.94 10.698s1.88-1.799 2.705-3.546c1.405-2.976 1.836-3.178 6.801-3.198 5.121-.021 5.351.097 6.763 3.478.805 1.925 1.907 3.5 2.449 3.5.543 0 .987-.178.987-.396 0-.754-9.904-21.604-10.262-21.604-.198 0-2.674 4.981-5.503 11.068M55 208c0 3.717.199 4 2.809 4 4.276 0 6.62-2.153 5.819-5.344-.581-2.318-1.172-2.656-4.647-2.656-3.978 0-3.981.003-3.981 4m33.211 4.75.289 8.75 3.369.322c8.377.802 13.386-5.778 10.021-13.165-1.392-3.054-4.825-4.657-9.976-4.657h-3.992zM152 213v9h3.55c4.132 0 8.938-2.222 9.829-4.545 1.372-3.577.59-8.197-1.831-10.809-1.959-2.114-3.367-2.646-7-2.646H152zm-139.315-2.466c-.927 1.944-1.685 3.744-1.685 4s1.575.466 3.5.466 3.5-.472 3.5-1.05c0-1.078-2.822-6.95-3.34-6.95-.159 0-1.048 1.59-1.975 3.534m121.94-.776c-2.269 4.387-2.054 5.242 1.316 5.242 3.874 0 4.221-.82 2.089-4.942l-1.78-3.442zm44.125.64c-.891 1.869-1.35 3.669-1.019 4 1.032 1.032 6.269.658 6.269-.448 0-1.078-2.822-6.95-3.34-6.95-.159 0-1.019 1.529-1.91 3.398M.409 227.377c-.291.757-.389 3.57-.219 6.25L.5 238.5l94.75.255c75.426.203 94.773-.001 94.862-1 .164-1.84.178-7.981.022-10.005-.127-1.653-5.353-1.75-94.665-1.75-79.355 0-94.617.221-95.06 1.377m10.12 1.978c-2.05 1.499-1.731 4.488.637 5.98 1.208.76 2.102.687 3.25-.265 3.633-3.016-.091-8.491-3.887-5.715m96.468.148c-.899 1.084-.697 1.667.927 2.682 2.757 1.722 2.65 3.123-.174 2.27-1.774-.536-2-.416-1.067.565 1.433 1.509 4.317.592 4.317-1.372 0-.778-.945-1.662-2.101-1.964-1.155-.302-1.816-1.01-1.468-1.573s1.294-.77 2.101-.46c.807.309 1.468.338 1.468.063 0-1.286-2.98-1.443-4.003-.211M3.015 232.25c.009 1.787.346 2.767.75 2.177s1.522-1.363 2.485-1.719c1.827-.674 2.467-3.708.781-3.708-.532 0-.686.736-.34 1.636.435 1.135.195 1.48-.782 1.125-.775-.281-1.297-1.017-1.159-1.636S4.55 229 4 229s-.993 1.463-.985 3.25m8.137-2.344c-1.818 1.124-1.055 4.489 1.113 4.906.957.185 2.026-.407 2.375-1.316.818-2.132-1.683-4.706-3.488-3.59m5.964 2.844c.064 2.063.328 2.929.588 1.925.457-1.768.54-1.768 2.617 0 1.406 1.197 1.728 1.283.936.251-.927-1.206-.935-1.848-.033-2.75.901-.901.879-1.468-.095-2.426-1.019-1.001-1.208-.976-.95.125.176.756-.313 1.605-1.088 1.886-.977.355-1.217.01-.782-1.125.346-.9.192-1.636-.34-1.636-.533 0-.917 1.688-.853 3.75m8.071-.508c.224 2.321.881 3.34 2.313 3.59l2 .348-2-1.558-2-1.558 2-.063c1.855-.057 1.872-.137.229-1.093-.974-.567-1.51-1.453-1.191-1.969.319-.517.075-.939-.542-.939-.664 0-.995 1.326-.809 3.242m5.158-.25c.117 2.642.642 3.576 2.155 3.84 1.831.318 1.858.235.321-.992-.924-.737-1.893-2.465-2.155-3.84-.307-1.615-.421-1.264-.321.992m6.755.758c.086 3.251.196 3.417.823 1.25l.724-2.5.797 2.416.796 2.417 1.858-2.417c1.022-1.329 1.85-3.091 1.84-3.916s-.763-.15-1.674 1.5l-1.657 3-.996-2.75c-1.411-3.893-2.629-3.408-2.511 1m9.152-.25c.011 2.2.216 2.982.455 1.738s.23-3.044-.02-4-.446.062-.435 2.262m1.898.25c.131 3.276.204 3.382.582.837l.432-2.914 2.382 2.914 2.382 2.913-.064-4c-.052-3.317-.185-3.573-.776-1.5l-.713 2.5-1.428-2.25c-2.067-3.257-2.968-2.774-2.797 1.5m7.102-.25c.011 2.2.216 2.982.455 1.738s.23-3.044-.02-4-.446.062-.435 2.262m2.415-2.833c-1.184 1.184-.714 2.183 1.333 2.833 2.702.857 2.568 2.882-.144 2.173-1.531-.401-1.836-.253-1.067.516 1.21 1.21 4.211.41 4.211-1.122 0-.548-.913-1.485-2.028-2.082s-1.764-1.513-1.441-2.035c.674-1.091.124-1.271-.864-.283m7.143 2.833c.225 1.925.585 3.5.799 3.5s.391-1.575.391-3.5-.36-3.5-.799-3.5-.616 1.575-.391 3.5m3.19 0c0 2.972.339 3.495 2.25 3.47 1.889-.026 1.991-.182.635-.975-.962-.561-1.503-1.966-1.338-3.469.152-1.389-.133-2.526-.635-2.526S68 230.575 68 232.5m5.015-.25c.012 2.432.253 2.874.961 1.755.818-1.294 1.125-1.249 2.284.336 1.213 1.659 1.348 1.494 1.44-1.755.056-1.972-.289-3.586-.768-3.586-.478 0-.61.675-.294 1.5.374.974-.025 1.5-1.138 1.5s-1.512-.526-1.138-1.5c.316-.825.139-1.5-.393-1.5-.533 0-.962 1.463-.954 3.25m8.596-1.678C80.747 232.822 82.732 236 85 236c1.061 0 2.439-.952 3.062-2.117.914-1.706.801-2.433-.581-3.75-1.601-1.524-1.643-1.494-.645.464 1.136 2.226-.065 4.403-2.429 4.403-1.761 0-2.617-3.042-1.302-4.627.704-.848.751-1.373.124-1.373-.558 0-1.287.708-1.618 1.572M92 232.5c0 2.757.398 3.5 1.878 3.5 3.83 0 5.596-5.682 2.122-6.83-1.282-.423-1.302-.255-.138 1.155 1.649 1.997.822 4.675-1.444 4.675-1.259 0-1.542-.704-1.205-3 .242-1.65.069-3-.386-3S92 230.575 92 232.5m7.079-.25c-.069 3.278.204 3.735 2.171 3.634 1.693-.087 1.817-.229.5-.573-2.001-.523-2.383-2.303-.5-2.326.865-.011.911-.242.15-.75-.605-.404-1.357-1.41-1.671-2.235s-.607.188-.65 2.25m14.019-.101c-1.429 4.098-1.436 4.077.933 2.609 1.678-1.04 2.195-.998 2.984.242 1.268 1.992 1.228.996-.113-2.851-.604-1.732-1.46-3.149-1.902-3.149s-1.298 1.417-1.902 3.149m6.052.101c-.119 2.967.215 3.747 1.6 3.735 1.136-.01 1.343-.275.59-.754-.638-.405-1.358-2.086-1.6-3.734-.399-2.718-.454-2.648-.59.753m3.968-.469c-.075 2.091.431 3.492 1.395 3.862 2.224.854 4.504-1.503 4.369-4.515-.114-2.532-.142-2.518-.76.372-.362 1.693-1.286 3-2.122 3s-1.76-1.307-2.122-3l-.641-3zm6.882.719c0 2.757.398 3.5 1.878 3.5 3.83 0 5.596-5.682 2.122-6.83-1.282-.423-1.302-.255-.138 1.155 1.649 1.997.822 4.675-1.444 4.675-1.259 0-1.542-.704-1.205-3 .242-1.65.069-3-.386-3s-.827 1.575-.827 3.5m9.345-1.957c-.326.849-.369 1.767-.096 2.04.274.273.737-.422 1.03-1.543.624-2.383-.069-2.751-.934-.497m4.219-.25c.376.986.935 1.541 1.243 1.233s.001-1.114-.683-1.793c-.988-.98-1.102-.865-.56.56m2.451-.543c.009.412.439 1.419.956 2.237.739 1.169.904 1.009.772-.75-.149-1.982-1.766-3.374-1.728-1.487m7.985 2.82c0 3.118.281 3.529 2.223 3.25 1.735-.25 2.258-1.034 2.383-3.57.088-1.787-.205-3.25-.65-3.25s-.64 1.35-.431 3c.268 2.114-.043 3-1.053 3-1.003 0-1.328-.9-1.084-3 .192-1.65-.041-3-.519-3s-.869 1.606-.869 3.57m6.667-2.903c-.367.366-.667 1.686-.667 2.932 0 2.888 3.607 4.223 5.714 2.115 1.551-1.551.976-5.714-.79-5.714-.517 0-.386.889.292 1.975 1.481 2.371-.153 4.647-2.649 3.689-1.868-.717-2.094-4.285-.317-5.002.698-.281.771-.539.167-.583-.596-.043-1.384.221-1.75.588m7.483 2.583c-.119 2.967.215 3.747 1.6 3.735 1.136-.01 1.343-.275.59-.754-.638-.405-1.358-2.086-1.6-3.734-.399-2.718-.454-2.648-.59.753m4.102.25c.011 2.2.216 2.982.455 1.738s.23-3.044-.02-4-.446.062-.435 2.262m1.779-3c0 .55.436 1.675.969 2.5s.969 1.05.969.5-.436-1.675-.969-2.5-.969-1.05-.969-.5m4.409 1.882c-.361 1.44-1.058 2.618-1.548 2.618-.491 0-.892.45-.892 1s.406 1 .902 1c1.003 0 3.372-6.06 2.651-6.78-.251-.251-.751.722-1.113 2.162m2.812 1.118c.011 2.2.216 2.982.455 1.738s.23-3.044-.02-4-.446.062-.435 2.262m2.846-.351c-1.425 4.088-1.39 4.338.402 2.851 1.197-.993 1.803-.993 3 0 1.792 1.487 1.827 1.237.402-2.851-.604-1.732-1.46-3.149-1.902-3.149s-1.298 1.417-1.902 3.149M79.158 233c0 1.375.227 1.938.504 1.25.278-.687.278-1.812 0-2.5-.277-.687-.504-.125-.504 1.25m35.342-1c-.34.55-.141 1 .441 1s1.059-.45 1.059-1-.198-1-.441-1-.719.45-1.059 1m70.5 0c0 .55.45 1 1 1s1-.45 1-1-.45-1-1-1-1 .45-1 1m-41 1.942c0 .872-.817 1.07-2.584.626-1.675-.42-2.358-.283-1.941.392.354.572 1.49 1.04 2.525 1.04 1.985 0 3.617-1.716 2.6-2.733-.33-.33-.6-.027-.6.675m2.5 1.058c.34.55 1.379.993 2.309.985 1.457-.014 1.484-.15.191-.985-1.958-1.266-3.282-1.266-2.5 0"/><path fill="#1976D2" fill-opacity=".327" fill-rule="evenodd" d="M99.872 60.75c-1.243 1.586-1.208 1.621.378.378 1.666-1.307 2.195-2.128 1.372-2.128-.207 0-.995.788-1.75 1.75m-3.783 3.642c-.635.766-2.505 1.952-4.154 2.635s-2.802 1.44-2.56 1.681c.643.644 6.057-2.319 7.57-4.142.715-.861 1.075-1.566.8-1.566s-1.02.627-1.656 1.392m-35.006-.109c.23.156 1.317.943 2.417 1.75 1.85 1.357 1.897 1.336.628-.283-.755-.963-1.843-1.75-2.417-1.75s-.857.127-.628.283M69 69c.825.533 2.175.945 3 .914.989-.036.819-.347-.5-.914-2.749-1.181-4.328-1.181-2.5 0m7.25 1.716c1.513.229 3.987.229 5.5 0s.275-.416-2.75-.416-4.263.187-2.75.416m-16.5 6.946c.688.278 1.813.278 2.5 0 .688-.277.125-.504-1.25-.504s-1.937.227-1.25.504m14.063.021c.721.289 1.584.253 1.916-.079s-.258-.568-1.312-.525c-1.165.048-1.402.285-.604.604m-16.149 1.926c.608 1.618.484 1.707-.855.619-1.323-1.074-2.148-.689-5.325 2.488-4.646 4.646-7.244 10.539-8.477 19.232-1.781 12.557 1.318 21.365 10.75 30.553 17.921 17.458 46.52 25.128 71.067 19.057 11.592-2.866 13.832-4.558 6.036-4.558-6.524 0-18.985-3.003-24.824-5.982-6.656-3.395-11.821-8.781-15.189-15.838l-3.137-6.573.655-14.554c.747-16.587-.03-19.422-6.375-23.254L78.5 78.69l3.5 3.266c1.925 1.796 2.792 2.776 1.926 2.178-1.153-.796-1.904-.759-2.809.14-.978.97-1.107.888-.62-.393.9-2.363-3.418-3.262-5.71-1.188-1.971 1.784-2.505.425-.587-1.493 1.635-1.635-.27-1.463-2.496.226-2.402 1.821-5.704.857-5.704-1.665 0-1.464-.338-1.739-1.25-1.02-1.614 1.273-4.899 1.264-6.523-.019-.971-.767-1.104-.557-.563.887m86.531 1.891c.02 1.65.244 2.204.498 1.231s.237-2.323-.037-3-.481.119-.461 1.769m-90.323.25c-1.243 1.586-1.208 1.621.378.378C55.916 80.821 56.445 80 55.622 80c-.207 0-.995.787-1.75 1.75m49.288 1.75c-.03 3.033 1.383 6 2.857 6 .724 0 1.525.625 1.779 1.389.312.934.037 1.126-.837.586-.715-.443-.436.389.62 1.848 1.057 1.458 4.147 3.782 6.867 5.164 8.066 4.098 16.219 3.031 23.469-3.069 3.092-2.602 6.662-8.174 5.793-9.043-.241-.242-.962.825-1.602 2.369l-1.163 2.809-8.972-.339c-5.99-.226-8.971.023-8.971.747 0 .634-1.037.406-2.491-.547-1.371-.898-2.244-2.034-1.941-2.523.435-.704-9.596-1.502-12.792-1.018-.398.06-1.145-1.349-1.659-3.132-.541-1.87-.945-2.395-.957-1.241m7.313 9.544c-.325.526.336.956 1.468.956 2.415 0 2.658-.556.591-1.349-.807-.31-1.734-.133-2.059.393m24.444.556c-1.7 2.048 1.755 2.42 3.595.387 1.614-1.784 1.591-1.87-.464-1.716-1.19.09-2.599.688-3.131 1.329m16.398 2.864c-5.688 2.473-7.985 10.406-4.798 16.569 2.145 4.147 6.797 6.304 12.266 5.688 5.451-.614 9.044-3.88 9.87-8.97.691-4.259-.289-9.094-1.671-8.24-.528.327-.699-.086-.379-.918.769-2.004-5.124-5.597-9.103-5.55-1.65.019-4.433.659-6.185 1.421m2.006.956c-.972 1.108-.136 1.32 4.765 1.212 5.015-.111 5.677-.327 4.237-1.382-2.231-1.636-7.505-1.536-9.002.17m-42.022 10.54c-3.775 2.301-6.299 6.719-6.299 11.022 0 7.159 5.351 13.805 15 18.63 4.865 2.432 6.597 2.746 15 2.715 14.007-.051 24.174-3.752 31.736-11.554 2.971-3.066 7.512-10.846 6.769-11.598-.177-.179-2.05.816-4.163 2.211-5.601 3.697-11.827 5.615-18.218 5.61-6.928-.004-10.345-1.925-18.778-10.553-8.204-8.393-14.656-10.381-21.047-6.483M33 158.059c0 .582.45.781 1 .441s1-.816 1-1.059-.45-.441-1-.441-1 .477-1 1.059m-17.372 4.469c-1.316 3.428-.674 13.189.956 14.542 2.099 1.742 4.832.06 5.156-3.172l.24-2.398-.958 2.25c-.527 1.238-1.668 2.25-2.535 2.25-1.31 0-1.528-1.136-1.283-6.67.311-7.004 1.68-8.938 3.618-5.108l1.152 2.278-.237-2.5c-.178-1.877-.89-2.576-2.859-2.804-1.709-.198-2.841.266-3.25 1.332m8.582 6.722c.275 7.816.414 8.268 2.655 8.585 1.301.184 2.854-.154 3.45-.75.78-.78.326-1.085-1.615-1.085-2.693 0-2.7-.019-2.7-7.5 0-4.528-.412-7.5-1.04-7.5-.66 0-.935 3.017-.75 8.25m7.79.25c0 5 .412 8.5 1 8.5s1-3.5 1-8.5-.412-8.5-1-8.5-1 3.5-1 8.5m4-.559c0 9.567 1.773 11.851 2.203 2.838l.299-6.279 1.815 5.732c2.72 8.593 3.707 8.052 3.503-1.923-.107-5.225-.333-6.876-.555-4.059-.206 2.613-.747 4.75-1.201 4.75s-1.336-2.025-1.96-4.5c-.706-2.805-1.692-4.5-2.618-4.5-1.19 0-1.486 1.583-1.486 7.941m10 0c0 4.368.45 8.219 1 8.559.637.394 1-2.49 1-7.941 0-5.039-.411-8.559-1-8.559-.583 0-1 3.314-1 7.941m5.667-7.274c-.367.366-.667 3.98-.667 8.031 0 5.896.326 7.49 1.636 7.993.9.345 2.362.172 3.25-.384 1.858-1.164 2.782-5.307 1.184-5.307-.589 0-1.07.933-1.07 2.073 0 1.435-.539 1.971-1.75 1.742-2.884-.547-3.016-13.815-.137-13.815.591 0 1.31.9 1.597 2 .581 2.219 2.29 2.742 2.29.7 0-2.765-4.463-4.903-6.333-3.033m9.954 1.083c-.283.963-.789 3.55-1.125 5.75s-.819 5.012-1.073 6.25c-.253 1.238-.003 2.25.558 2.25.56 0 1.019-.675 1.019-1.5 0-2.38 3.694-1.78 4.344.706.317 1.214.877 1.906 1.245 1.539 1.2-1.2-1.718-16.745-3.144-16.745-.721 0-1.542.787-1.824 1.75m11.547 6.5.168 8.25.62-6c.559-5.417.725-5.757 1.704-3.5.597 1.375 1.402 3.957 1.79 5.739 1.405 6.463 2.549 4.341 2.387-4.43-.148-8.019-.22-8.316-.796-3.309-.642 5.583-.984 5.442-3.043-1.25-1.879-6.109-3.009-4.311-2.83 4.5m11.389-7.083c-.889 2.67-2.473 15.25-1.982 15.741.277.278.764-.488 1.081-1.702.748-2.86 3.72-2.835 5.176.044.943 1.865 1.036 1.393.543-2.75-1.001-8.421-1.88-11.835-3.154-12.26-.671-.223-1.42.194-1.664.927m6.693-.478c1.467.384 1.75 1.649 1.75 7.825 0 4.053.45 7.646 1 7.986.633.391 1-2.14 1-6.891 0-6.097.329-7.701 1.75-8.529 1.365-.795.759-1-2.75-.934-2.475.047-3.713.292-2.75.543m8.617 1.061c-.202.963-.109 4.9.206 8.75l.574 7 .176-8.75c.169-8.359-.163-10.787-.956-7m3.491.542c.317 1.26.88 4.881 1.252 8.046.531 4.519 1.019 5.688 2.272 5.446 1.086-.209 1.82-1.903 2.296-5.296.385-2.743.941-6.226 1.236-7.738s.15-2.75-.323-2.75c-.472 0-1.172 2.929-1.555 6.509s-1.09 6.267-1.57 5.97c-.481-.297-1.177-3.226-1.549-6.509s-1.116-5.97-1.655-5.97-.72 1.031-.404 2.292M113.2 169l.074 8.5.736-6.5c.405-3.575.372-7.4-.074-8.5-.499-1.234-.781 1.256-.736 6.5m3.8.374v8.373l3.25-.661c3.249-.661 3.25-.664 3.549-7.534.319-7.311-.319-8.508-4.549-8.537-2.155-.014-2.25.337-2.25 8.359m10.576-3.234c-.375 2.827-.913 6.54-1.196 8.25-.423 2.565-.318 2.803.603 1.36 1.345-2.108 5.017-2.334 5.017-.309 0 .793.462 1.727 1.028 2.076.663.41.83-.544.47-2.691a969 969 0 0 1-1.115-6.826c-.902-5.661-1.441-7-2.822-7-.814 0-1.559 1.93-1.985 5.14m8.424 3.234v8.373l3.25-.661c3.21-.653 3.254-.738 3.55-6.961.332-6.963-.716-9.125-4.422-9.125-2.315 0-2.378.223-2.378 8.374m13.709-7.75c-1.573 1.573-.598 6.132 1.791 8.376 3.055 2.87 3.316 6 .5 6-1.1 0-2-.45-2-1s-.466-1-1.035-1c-.692 0-.669.684.067 2.061.706 1.318 1.89 1.948 3.286 1.75 3.287-.468 3.409-4.991.247-9.137-1.411-1.85-2.565-3.856-2.565-4.459 0-2.118 2.318-2.501 3.742-.618 1.403 1.857 1.429 1.855 1.088-.097-.348-1.985-3.762-3.235-5.121-1.876m12.423 7.626c.088 5.562.333 7.109.75 4.75.809-4.581 3.497-4.752 3.931-.25.173 1.787.735 3.25 1.25 3.25 1.236 0 1.214-5.711-.025-6.476-.615-.381-.615-1.505 0-3.125 1.293-3.4-.382-6.399-3.573-6.399-2.431 0-2.463.112-2.333 8.25m13.368-.247v7.999l3.5-.151c3.025-.13 3.127-.207.75-.567-2.716-.412-2.75-.509-2.75-7.85 0-4.089-.338-7.433-.75-7.432-.412.002-.75 3.602-.75 8.001m-56.338-6.103c-.857.53-1.172 2.71-.967 6.693.265 5.139.565 5.907 2.305 5.907 1.726 0 2.04-.765 2.295-5.59.306-5.802-1.124-8.561-3.633-7.01m19.244-.108c-1.542 1.014-1.058 12.491.549 13.026 2.058.686 3.002-1.966 2.566-7.211-.433-5.213-1.37-6.963-3.115-5.815m25.01.566c-.909 2.368-.047 5.142 1.598 5.142.975 0 1.486-1.003 1.486-2.917 0-3.161-2.134-4.7-3.084-2.225m-100.672 1.231c-1.135 1.135-.887 8.411.287 8.411.568 0 1.227-.562 1.466-1.25.638-1.834-.88-8.033-1.753-7.161m22.179 1.661c-.042 1.238-.231 3.065-.42 4.062-.332 1.748 2.002 3.516 3.139 2.379.86-.859-.7-8.691-1.73-8.691-.502 0-.946 1.012-.989 2.25m44.077-.934c0 .789-.281 2.84-.625 4.559-.495 2.474-.287 3.125 1 3.125 1.225 0 1.625-.97 1.625-3.941 0-2.168-.45-4.219-1-4.559s-1 .027-1 .816m102.272 11.121c-2.875.697-8.05 2.673-11.5 4.392-8.171 4.072-20.308 13.222-18.786 14.162 2.117 1.308-4.311 2.79-11.486 2.648l-7-.139 5.087 10c2.798 5.5 5.326 10.948 5.619 12.106.461 1.829 1.964.71 11.417-8.5 13.932-13.575 26.366-22.883 38.553-28.86 5.321-2.61 9.709-5.025 9.75-5.365.24-2.002-14.019-2.294-21.654-.444M157.5 177c.34.55.816 1 1.059 1s.441-.45.441-1-.477-1-1.059-1-.781.45-.441 1m15.022 8.913c-1.906.745-1.894.817.336 2.011 1.272.681 2.402 1.089 2.511.907s.8-1.118 1.536-2.081c1.166-1.522 1.096-1.741-.533-1.68-1.029.039-2.762.418-3.85.843m10.478.452c0 .751-.944 2.565-2.097 4.031-1.742 2.214-1.879 2.928-.813 4.213 1.139 1.372 1.497 1.285 3.176-.781l1.892-2.328-.598 2.75c-.704 3.236-.774 3.22 4.542 1.093 3.857-1.544 4.206-1.544 5.07 0 1.047 1.871 2.828 2.224 2.828.561 0-2.247-4.296-7.015-8.044-8.927-4.566-2.329-5.956-2.472-5.956-.612m-4.345 1.464c-2.226 2.459-2.306 4.956-.1 3.126 2.023-1.68 3.765-4.955 2.635-4.955-.484 0-1.625.823-2.535 1.829M30.923 204.923c-2.433 2.433-2.919 3.732-2.901 7.75.024 5.102 1.746 8.207 5.662 10.21 3.339 1.707 8.485 1.323 11.816-.883 3.643-2.412 2.788-2.582-1.855-.368-10.556 5.034-19.918-7.513-11.722-15.709 3.324-3.324 9.261-4.007 12.636-1.455 2.914 2.205 4.3 1.765 1.58-.501-1.65-1.375-3.855-1.967-7.327-1.967-4.155 0-5.443.477-7.889 2.923m22.257 8.327c.099 6.188.351 9 .56 6.25.498-6.557 1.639-7.56 4.481-3.941 4.557 5.802 7.072 8.067 3.882 3.494-3.597-5.155-3.784-6.053-1.258-6.053 2.23 0 5.155-3.023 5.155-5.329 0-3.199-3.705-5.671-8.5-5.671H53zM71 212.5V223l5.75-.185 5.75-.185-5.303-.369-5.302-.369.302-4.696.303-4.696 5-.593 5-.593-5.31-.157-5.311-.157.311-3.75.31-3.75 5.5-.587 5.5-.587-6.25-.163L71 202zm16 0V223h5.777c6.785 0 9.607-1.603 11.172-6.346 2.604-7.889-3.255-14.649-12.699-14.652L87 202zm22.378.5c0 6.325.163 8.912.361 5.75s.198-8.338 0-11.5-.361-.575-.361 5.75m5.872-10.284 2.75.417.194 10.183.193 10.184.557-9.958c.534-9.565.655-9.986 3.056-10.651 1.619-.448.386-.674-3.5-.641-3.3.027-4.763.237-3.25.466M150 212.5V223h5.865c7.077 0 10.585-2.256 11.556-7.43 1.48-7.889-4.125-13.57-13.389-13.57H150zm-138.063-4.75c-1.186 2.613-3.241 7.144-4.566 10.07s-2.008 5.074-1.52 4.772c.489-.302 1.452-1.909 2.14-3.571C9.159 216.201 9.593 216 14.5 216s5.341.201 6.509 3.021c.688 1.662 1.666 3.278 2.173 3.591.506.313.272-.934-.52-2.771C19.923 213.488 14.81 203 14.453 203c-.198 0-1.33 2.137-2.516 4.75m42.73-4.083c-.367.366-.667 2.391-.667 4.5 0 3.794.04 3.833 3.929 3.833 6.37 0 9.223-4.379 4.848-7.443-2.264-1.587-6.905-2.096-8.11-.89m34.083-.096c-.412.419-.75 4.737-.75 9.596V222h4.944c6.883 0 10.329-2.972 10.329-8.907 0-5.607-3.097-8.835-9.282-9.675-2.47-.335-4.829-.266-5.241.153m42.864 8.832c-2.552 5.447-4.436 10.108-4.186 10.359s1.133-1.169 1.962-3.154c1.449-3.466 1.706-3.608 6.539-3.608 4.882 0 5.092.121 7.12 4.097 1.15 2.253 2.292 3.895 2.539 3.649.246-.247-1.753-5.128-4.443-10.847l-4.89-10.399zm20.136-8.832c-.412.419-.75 4.737-.75 9.596V222h5.326c4.419 0 5.734-.435 7.727-2.556 3.343-3.559 3.304-9.542-.085-12.93-2.517-2.517-10.698-4.488-12.218-2.943m23.964 9.6c-2.589 5.593-4.509 10.367-4.269 10.608s1.253-1.299 2.249-3.421c1.729-3.683 2.051-3.872 7.088-4.161 5.227-.301 5.29-.27 6.805 3.358.842 2.014 1.735 3.457 1.985 3.207.443-.444-8.188-19.762-8.83-19.762-.177 0-2.44 4.577-5.028 10.171m-163.1-3.77C10.267 214.348 10.544 215 15 215c2.2 0 4-.243 4-.54 0-.81-3.984-8.46-4.406-8.46-.202 0-1.092 1.531-1.98 3.401m121.508.361c-1.167 2.287-2.122 4.401-2.122 4.698s1.8.54 4 .54c4.538 0 4.819-.804 2.08-5.949l-1.837-3.448zm44.563-.228C176.304 214.527 176.504 215 181 215c2.2 0 4-.243 4-.54 0-.727-3.963-8.46-4.335-8.46-.162 0-1.053 1.59-1.98 3.534M1 232.5v5.5h189v-11H1zm2.667-3.833C2.608 229.725 2.894 236 4 236c.55 0 1-.623 1-1.383 0-2.252 3.749-2.687 4.32-.501.636 2.432 5.207 2.525 6.6.134.939-1.612 1.027-1.592 1.12.25l.101 2 .822-2c.755-1.836.881-1.856 1.537-.25 1.196 2.932 2.218 1.961 2.106-2-.087-3.088-.503-3.806-2.356-4.07-1.587-.225-2.25.189-2.25 1.405 0 1.589-.162 1.578-2.056-.136-1.75-1.583-2.363-1.668-4.118-.573-1.479.924-2.368.982-3.144.206-1.222-1.222-3.022-1.409-4.015-.415M25 232c0 3.486.289 3.998 2.25 3.985 1.827-.013 1.968-.201.75-1-1.333-.876-1.333-1.096 0-1.985s1.333-1.109 0-1.985q-1.504-.985-.25-1c.688-.008 1.25-.465 1.25-1.015s-.9-1-2-1c-1.667 0-2 .667-2 4m5 0c0 3.505.279 3.99 2.25 3.921 1.237-.043 1.688-.306 1-.583-.687-.278-1.25-2.042-1.25-3.921S31.55 228 31 228s-1 1.8-1 4m7.07.25c.053 3.218.27 3.764.893 2.25.755-1.836.881-1.856 1.537-.25.393.963 1.083 1.75 1.534 1.75.45 0 1.025-.787 1.277-1.75.435-1.667.463-1.667.573 0 .069 1.045.922 1.75 2.116 1.75 1.657 0 2-.667 2-3.889 0-3.09-.36-3.86-1.75-3.75-.962.077-2.37 1.233-3.127 2.57l-1.377 2.432-1.405-2.682c-1.926-3.676-2.353-3.382-2.271 1.569m11.066-.25c.05 3.526.218 3.959.776 2l.713-2.5 1.428 2.25c2.091 3.294 2.947 2.768 2.947-1.809 0-2.668-.372-3.829-1.087-3.387-.598.369-.839 1.621-.536 2.781.446 1.705.087 1.54-1.877-.863l-2.428-2.972zm7.136 0c0 2.475.195 3.488.434 2.25.238-1.238.238-3.262 0-4.5-.239-1.238-.434-.225-.434 2.25m2.062-2.429c-.406 1.058-.02 2.185 1.004 2.934 2.143 1.567 2.142 2.616-.002 1.794-1.119-.43-1.427-.256-.941.531.398.644 1.596 1.17 2.664 1.17 2.715 0 2.499-3.402-.309-4.873l-2.25-1.179 2.307.447c1.469.285 2.166.022 1.917-.724-.631-1.896-3.674-1.966-4.39-.1m6.059.011c.334.87.607 2.67.607 4S64.45 236 65 236s1-1.323 1-2.941.45-3.219 1-3.559c.595-.368 1 .823 1 2.941 0 3.029.335 3.557 2.25 3.544 1.827-.013 1.968-.201.75-1-1.333-.876-1.333-1.096 0-1.985s1.333-1.109 0-1.985q-1.504-.985-.25-1c.688-.008 1.25-.465 1.25-1.015s-2.073-1-4.607-1c-3.79 0-4.499.28-4 1.582M73 232c0 2.2.45 4 1 4s1-.505 1-1.122c0-.732.588-.644 1.687.25 1.46 1.187 1.607 1.158 1.093-.219-.327-.875-.193-2.225.297-3 .65-1.025.897-.66.908 1.341.008 1.512.465 2.75 1.015 2.75s1-.454 1-1.008c0-.598.817-.499 2.003.242 3.687 2.303 7.742-2.427 4.957-5.782-1.643-1.98-4.642-1.828-5.88.298-.971 1.667-1.021 1.667-1.05 0-.016-.963-.48-1.75-1.03-1.75s-1 .54-1 1.2c0 .933-.267.933-1.2 0-.66-.66-2.01-1.2-3-1.2-1.433 0-1.8.815-1.8 4m19 .066c0 3.847.149 4.05 2.75 3.75 4.761-.547 3.95-7.816-.872-7.816-1.529 0-1.878.755-1.878 4.066m7-.066c0 3.516.272 3.986 2.25 3.884 1.693-.087 1.817-.229.5-.573-.963-.252-1.75-.875-1.75-1.384 0-.51.787-.941 1.75-.959 1.583-.029 1.565-.171-.191-1.5-1.693-1.28-1.725-1.468-.25-1.468.93 0 1.691-.45 1.691-1s-.9-1-2-1c-1.667 0-2 .667-2 4m7.408-2.622c-.737 1.922.272 3.622 2.151 3.622.793 0 1.441.48 1.441 1.067 0 .634-.864.793-2.125.393-1.43-.454-1.902-.312-1.441.433.376.609 1.557 1.107 2.625 1.107 2.437 0 2.55-2.778.191-4.721-1.656-1.365-1.652-1.411.084-.86 1.201.382 1.69.151 1.417-.668-.621-1.864-3.67-2.125-4.343-.373m7.199 1.84c-.884 2.045-1.607 3.845-1.607 4 .001.155 3.713.282 8.25.282h8.25l.316-3.85c.209-2.538-.047-3.625-.75-3.191-.586.362-1.066 1.982-1.066 3.6s-.45 2.941-1 2.941-1-1.323-1-2.941-.45-3.219-1-3.559c-.595-.368-1 .823-1 2.941 0 5.017-2.744 4.857-3.272-.191l-.392-3.75-.242 4-.242 4-1.819-4-1.818-4zm16.393.848c0 3.847.149 4.05 2.75 3.75 4.761-.547 3.95-7.816-.872-7.816-1.529 0-1.878.755-1.878 4.066m9.667-3.399c-.367.366-.667 2.166-.667 4 0 2.811.36 3.333 2.3 3.333 1.265 0 2.84-.54 3.5-1.2.933-.933 1.2-.933 1.2 0 0 .671 1.213 1.149 2.75 1.084 1.692-.071 2.077-.292 1-.573-2.041-.534-2.29-1.892-.5-2.728.984-.459.973-.711-.053-1.184-.989-.456-.869-.93.5-1.968 1.665-1.263 1.593-1.37-.947-1.399-1.847-.022-2.75.484-2.75 1.539 0 1.429-.143 1.429-1.571 0-1.651-1.65-3.639-2.028-4.762-.904M154 232c0 3.6.25 4 2.5 4 1.375 0 2.5-.54 2.5-1.2 0-.933.267-.933 1.2 0 1.74 1.74 4.874 1.471 6.408-.55 1.265-1.667 1.33-1.667 1.36 0 .022 1.192.83 1.75 2.532 1.75 2.301 0 2.487-.339 2.332-4.25l-.168-4.25-.392 3.75c-.253 2.415-.905 3.75-1.832 3.75-.973 0-1.484-1.216-1.576-3.75-.092-2.522-.283-2.979-.583-1.396l-.447 2.354-1.474-2.104c-1.73-2.47-3.64-2.681-5.691-.63-1.3 1.299-1.542 1.299-2.04 0-.312-.811-1.48-1.474-2.598-1.474-1.703 0-2.031.646-2.031 4m20-3.149c0 1.788 2.232 7.149 2.977 7.149.429 0 1.396-1.463 2.148-3.25l1.368-3.25.622 3.5.622 3.5.131-4.25c.149-4.796-1.593-5.412-3.534-1.25l-1.166 2.5-1.059-2.75c-1.026-2.663-2.109-3.639-2.109-1.899m10.128 2.212c-1.539 4.415-1.53 4.437 1.918 4.437 2.745 0 2.985-.247 2.434-2.5-.336-1.375-1.199-3.101-1.918-3.836-1.083-1.109-1.498-.785-2.434 1.899M5 231c0 .55.45 1 1 1s1-.45 1-1-.45-1-1-1-1 .45-1 1m5.336.567c-.331.862-.089 2.08.538 2.707 1.408 1.408 4.742-1.468 3.685-3.178-.998-1.615-3.531-1.332-4.223.471M18 231c0 .55.45 1 1 1s1-.45 1-1-.45-1-1-1-1 .45-1 1m57 0c0 .55.45 1 1 1s1-.45 1-1-.45-1-1-1-1 .45-1 1m8.18 1.25c.176 1.238.995 2.25 1.82 2.25s1.644-1.012 1.82-2.25c.245-1.732-.174-2.25-1.82-2.25s-2.065.518-1.82 2.25m9.82.25c0 2.657.646 3.01 2.896 1.586 1.724-1.092.725-4.086-1.365-4.086-.966 0-1.531.922-1.531 2.5m38 0c0 2.809 1.16 3.217 2.964 1.044 1.39-1.675.587-3.544-1.523-3.544-.87 0-1.441.99-1.441 2.5m10 .083c0 3.133 2.348 2.79 2.82-.411.212-1.443-.208-2.172-1.25-2.172-1.021 0-1.57.903-1.57 2.583m14.813-1.9c.721.289 1.584.253 1.916-.079s-.258-.568-1.312-.525c-1.165.048-1.402.285-.604.604m5.523.884c-.331.862-.111 2.058.489 2.658 1.444 1.444 4.271-.811 3.509-2.798-.732-1.906-3.247-1.818-3.998.14M155 234c0 .55.423 1 .941 1s1.219-.45 1.559-1-.084-1-.941-1-1.559.45-1.559 1"/></svg>